<svg width="512" height="512" viewBox="0 0 512 512" xmlns="http://www.w3.org/2000/svg">
  <rect x="16" y="16" width="480" height="480" rx="96" fill="#0D8068"/>
  <path d="M128 336 Q128 192 256 152 Q384 112 384 216 L384 256 Q384 336 304 360 L204 392 Q128 416 128 336Z" fill="#fff" opacity="0.95"/>
  <path d="M166 320 Q166 216 256 192 Q332 172 332 248 L332 270 Q332 326 284 342 L216 362 Q166 376 166 320Z" fill="#0AAE8F" opacity="0.7"/>
  <path d="M204 306 Q204 244 256 228 Q294 218 294 254 L294 268 Q294 300 268 312 L238 322 Q204 332 204 306Z" fill="#fff" opacity="0.5"/>
</svg>
